<svg xmlns="http://www.w3.org/2000/svg" xmlns:xlink="http://www.w3.org/1999/xlink" viewBox="0 0 293.71 265.69"><defs><style>.cls-1{opacity:0.9;fill:url(#linear-gradient);}.cls-2,.cls-3{opacity:0.8;}.cls-2{fill:url(#radial-gradient);}.cls-3{fill:url(#radial-gradient-2);}</style><linearGradient id="linear-gradient" x1="598.09" y1="-1768.76" x2="836.69" y2="-1768.76" gradientTransform="translate(1637.65 1316.27) rotate(-73.2)" gradientUnits="userSpaceOnUse"><stop offset="0" stop-color="#f7f7f7"/><stop offset="0.44" stop-color="#f4f4f4"/><stop offset="0.82" stop-color="#e9e9e9"/><stop offset="1" stop-color="#e1e1e1"/></linearGradient><radialGradient id="radial-gradient" cx="-7.79" cy="264.64" r="376.72" gradientUnits="userSpaceOnUse"><stop offset="0" stop-color="#fff"/><stop offset="0.45" stop-color="#fff"/><stop offset="1" stop-color="#f7f7f7"/></radialGradient><radialGradient id="radial-gradient-2" cx="-13.53" cy="267.96" r="390.9" gradientTransform="translate(-19.57 31.1) rotate(-11.02)" gradientUnits="userSpaceOnUse"><stop offset="0" stop-color="#fff"/><stop offset="0.45" stop-color="#fff"/><stop offset="1" stop-color="#fff"/></radialGradient></defs><title>Asset 3</title><g id="Layer_2" data-name="Layer 2"><g id="OBJECTS"><path class="cls-1" d="M12.85,188.19,223.19,264.5A19.49,19.49,0,0,0,249,242.78L209.93,22.46A19.48,19.48,0,0,0,178.21,11L7,155A19.48,19.48,0,0,0,12.85,188.19Z"/><path class="cls-2" d="M123.43,12.28,11.55,206.06a19.49,19.49,0,0,0,16.88,29.23H252.18a19.48,19.48,0,0,0,16.87-29.23L157.18,12.28A19.49,19.49,0,0,0,123.43,12.28Z"/><path class="cls-3" d="M102,13.65,26.45,233.22a20.22,20.22,0,0,0,23,26.42l227.9-44.39a20.22,20.22,0,0,0,11.39-33.12L136.33,7A20.22,20.22,0,0,0,102,13.65Z"/></g></g></svg>